<svg xmlns="http://www.w3.org/2000/svg" viewBox="0 0 32 32" width="32" height="32" aria-label="FBATools">
  <defs>
    <linearGradient id="ft" x1="0" y1="0" x2="1" y2="1">
      <stop offset="0%" stop-color="#F97316"/>
      <stop offset="100%" stop-color="#DB2777"/>
    </linearGradient>
  </defs>
  <rect x="2" y="2" width="28" height="28" rx="7" fill="url(#ft)"/>
  <path d="M8 10h6.4c2.1 0 3.4 1 3.4 2.6 0 1.1-.6 1.9-1.6 2.3 1.4.3 2.3 1.3 2.3 2.7 0 1.8-1.4 2.9-3.7 2.9H8V10zm2.4 4.3h3.5c.9 0 1.4-.4 1.4-1.1 0-.7-.5-1.1-1.4-1.1h-3.5v2.2zm0 4.5h3.8c1 0 1.6-.4 1.6-1.2 0-.8-.6-1.2-1.6-1.2h-3.8V18.8z" fill="#fff"/>
  <path d="M21.5 11.2h2.4l3.3 9.8h-2.5l-.6-1.9h-3l-.6 1.9h-2.4l3.4-9.8zm.1 6h2.2l-1.1-3.5-1.1 3.5z" fill="#fff"/>
</svg>